<svg width="1024" height="1024" viewBox="0 0 1024 1024" fill="none" xmlns="http://www.w3.org/2000/svg">
<rect width="1024" height="1024" rx="256" fill="#0F172A"/>
<path d="M216 506.216C216 435.574 216 400.253 225.555 371.745C243.924 316.939 286.939 273.924 341.745 255.555C370.253 246 405.574 246 476.216 246C480.632 246 482.839 246 484.621 246.597C488.046 247.745 490.735 250.434 491.883 253.859C492.48 255.641 492.48 257.848 492.48 262.264V461.996C492.48 474.087 492.48 480.132 491.032 485.772C489.748 490.771 487.634 495.518 484.777 499.816C481.554 504.665 477.06 508.71 468.073 516.798L246.762 715.978C237.017 724.749 232.144 729.134 228.001 729.307C224.401 729.458 220.939 727.916 218.643 725.14C216 721.944 216 715.389 216 702.277V506.216Z" fill="#F8FAFC"/>
<path d="M441.143 576.028C443.087 574.278 444.059 573.403 445.167 572.779C446.149 572.225 447.208 571.819 448.308 571.573C449.549 571.296 450.857 571.296 453.473 571.296H474.048C480.5 571.296 483.726 571.296 486.19 572.552C488.358 573.656 490.12 575.418 491.224 577.586C492.48 580.05 492.48 583.276 492.48 589.728V760.224C492.48 766.676 492.48 769.902 491.224 772.366C490.12 774.533 488.358 776.296 486.19 777.4C483.726 778.656 480.5 778.656 474.048 778.656H264.033C249.122 778.656 241.667 778.656 238.402 775.777C235.572 773.281 234.143 769.558 234.577 765.81C235.078 761.485 240.62 756.498 251.703 746.523L441.143 576.028Z" fill="#F8FAFC"/>
<path d="M531.359 677.28C531.359 625.666 531.359 599.859 541.404 580.144C550.24 562.803 564.339 548.705 581.68 539.869C601.394 529.824 627.201 529.824 678.815 529.824H793.202C796.099 529.824 797.548 529.824 798.749 530.083C803.172 531.038 806.626 534.492 807.58 538.914C807.839 540.115 807.839 541.564 807.839 544.461C807.839 590.818 807.839 613.996 803.693 633.214C788.425 703.971 733.154 759.242 662.397 774.509C643.179 778.656 620.001 778.656 573.645 778.656H547.623C543.208 778.656 541 778.656 539.218 778.059C535.793 776.911 533.105 774.222 531.957 770.797C531.359 769.015 531.359 766.808 531.359 762.393V677.28Z" fill="#F8FAFC"/>
<path d="M531.359 393.456C531.359 341.842 531.359 316.034 541.404 296.32C550.24 278.979 564.339 264.881 581.68 256.045C601.394 246 627.201 246 678.815 246H789.407C795.859 246 799.085 246 801.549 247.256C803.717 248.36 805.479 250.122 806.584 252.29C807.839 254.754 807.839 257.98 807.839 264.432V347.376C807.839 398.99 807.839 424.798 797.795 444.512C788.959 461.853 774.86 475.951 757.519 484.787C737.805 494.832 711.998 494.832 660.383 494.832H549.791C543.34 494.832 540.114 494.832 537.649 493.576C535.482 492.472 533.719 490.71 532.615 488.542C531.359 486.078 531.359 482.852 531.359 476.4V393.456Z" fill="#F8FAFC"/>
</svg>
