<svg width="2415" height="909" viewBox="0 0 2415 909" fill="none" xmlns="http://www.w3.org/2000/svg">
<path d="M126 448.216C126 377.574 126 342.253 135.555 313.745C153.924 258.939 196.939 215.924 251.745 197.555C280.253 188 315.574 188 386.216 188C390.632 188 392.839 188 394.621 188.597C398.046 189.745 400.735 192.434 401.883 195.859C402.48 197.641 402.48 199.848 402.48 204.264V403.996C402.48 416.087 402.48 422.132 401.032 427.772C399.748 432.771 397.634 437.518 394.777 441.816C391.554 446.665 387.06 450.709 378.073 458.798L156.762 657.978C147.017 666.749 142.144 671.134 138.001 671.307C134.401 671.457 130.939 669.915 128.643 667.14C126 663.944 126 657.388 126 644.277V448.216Z" fill="#0F172A"/>
<path d="M351.143 518.028C353.087 516.278 354.059 515.403 355.167 514.779C356.149 514.225 357.208 513.819 358.308 513.573C359.549 513.296 360.857 513.296 363.473 513.296H384.048C390.5 513.296 393.726 513.296 396.19 514.552C398.358 515.656 400.12 517.418 401.224 519.586C402.48 522.05 402.48 525.276 402.48 531.728V702.224C402.48 708.676 402.48 711.901 401.224 714.366C400.12 716.533 398.358 718.296 396.19 719.4C393.726 720.656 390.5 720.656 384.048 720.656H174.033C159.122 720.656 151.667 720.656 148.402 717.776C145.572 715.281 144.143 711.558 144.577 707.81C145.078 703.485 150.62 698.498 161.703 688.523L351.143 518.028Z" fill="#0F172A"/>
<path d="M441.359 619.28C441.359 567.666 441.359 541.859 451.404 522.144C460.24 504.803 474.339 490.705 491.68 481.869C511.394 471.824 537.201 471.824 588.815 471.824H703.202C706.099 471.824 707.548 471.824 708.749 472.083C713.172 473.038 716.626 476.492 717.58 480.914C717.839 482.115 717.839 483.564 717.839 486.461V486.461C717.839 532.818 717.839 555.996 713.693 575.213C698.425 645.971 643.154 701.241 572.397 716.509C553.179 720.656 530.001 720.656 483.645 720.656H457.623C453.208 720.656 451 720.656 449.218 720.059C445.793 718.911 443.105 716.222 441.957 712.797C441.359 711.015 441.359 708.808 441.359 704.393V619.28Z" fill="#0F172A"/>
<path d="M441.359 335.456C441.359 283.842 441.359 258.034 451.404 238.32C460.24 220.979 474.339 206.881 491.68 198.045C511.394 188 537.201 188 588.815 188H699.407C705.859 188 709.085 188 711.549 189.256C713.717 190.36 715.479 192.122 716.584 194.29C717.839 196.754 717.839 199.98 717.839 206.432V289.376C717.839 340.99 717.839 366.797 707.795 386.512C698.959 403.853 684.86 417.951 667.519 426.787C647.805 436.832 621.998 436.832 570.383 436.832H459.791C453.34 436.832 450.114 436.832 447.649 435.576C445.482 434.472 443.719 432.709 442.615 430.542C441.359 428.078 441.359 424.852 441.359 418.4V335.456Z" fill="#0F172A"/>
<path d="M871.385 627.656V348.384H921.976V585.247H1044.98V627.656H871.385ZM1142.18 631.884C1128.9 631.884 1116.95 629.52 1106.31 624.793C1095.77 619.974 1087.4 612.884 1081.22 603.52C1075.13 594.156 1072.09 582.611 1072.09 568.884C1072.09 557.065 1074.27 547.293 1078.63 539.565C1082.99 531.838 1088.95 525.656 1096.49 521.02C1104.04 516.384 1112.54 512.884 1121.99 510.52C1131.54 508.065 1141.4 506.293 1151.59 505.202C1163.86 503.929 1173.81 502.793 1181.45 501.793C1189.09 500.702 1194.63 499.065 1198.09 496.884C1201.63 494.611 1203.4 491.111 1203.4 486.384V485.565C1203.4 475.293 1200.36 467.338 1194.27 461.702C1188.18 456.065 1179.4 453.247 1167.95 453.247C1155.86 453.247 1146.27 455.884 1139.18 461.156C1132.18 466.429 1127.45 472.656 1124.99 479.838L1078.9 473.293C1082.54 460.565 1088.54 449.929 1096.9 441.384C1105.27 432.747 1115.49 426.293 1127.59 422.02C1139.68 417.656 1153.04 415.474 1167.68 415.474C1177.77 415.474 1187.81 416.656 1197.81 419.02C1207.81 421.384 1216.95 425.293 1225.22 430.747C1233.49 436.111 1240.13 443.429 1245.13 452.702C1250.22 461.974 1252.77 473.565 1252.77 487.474V627.656H1205.31V598.884H1203.68C1200.68 604.702 1196.45 610.156 1190.99 615.247C1185.63 620.247 1178.86 624.293 1170.68 627.384C1162.59 630.384 1153.09 631.884 1142.18 631.884ZM1154.99 595.611C1164.9 595.611 1173.49 593.656 1180.77 589.747C1188.04 585.747 1193.63 580.474 1197.54 573.929C1201.54 567.384 1203.54 560.247 1203.54 552.52V527.838C1201.99 529.111 1199.36 530.293 1195.63 531.384C1191.99 532.474 1187.9 533.429 1183.36 534.247C1178.81 535.065 1174.31 535.793 1169.86 536.429C1165.4 537.065 1161.54 537.611 1158.27 538.065C1150.9 539.065 1144.31 540.702 1138.49 542.974C1132.68 545.247 1128.09 548.429 1124.72 552.52C1121.36 556.52 1119.68 561.702 1119.68 568.065C1119.68 577.156 1122.99 584.02 1129.63 588.656C1136.27 593.293 1144.72 595.611 1154.99 595.611ZM1403.69 418.202V456.384H1279.88V418.202H1403.69ZM1310.83 627.656V398.429C1310.83 384.338 1313.74 372.611 1319.56 363.247C1325.47 353.884 1333.38 346.884 1343.29 342.247C1353.19 337.611 1364.19 335.293 1376.29 335.293C1384.83 335.293 1392.42 335.974 1399.06 337.338C1405.69 338.702 1410.6 339.929 1413.79 341.02L1403.97 379.202C1401.88 378.565 1399.24 377.929 1396.06 377.293C1392.88 376.565 1389.33 376.202 1385.42 376.202C1376.24 376.202 1369.74 378.429 1365.92 382.884C1362.19 387.247 1360.33 393.52 1360.33 401.702V627.656H1310.83ZM1439.74 627.656V348.384H1490.33V585.247H1613.33V627.656H1439.74ZM1710.53 631.884C1697.25 631.884 1685.3 629.52 1674.66 624.793C1664.12 619.974 1655.75 612.884 1649.57 603.52C1643.48 594.156 1640.44 582.611 1640.44 568.884C1640.44 557.065 1642.62 547.293 1646.98 539.565C1651.34 531.838 1657.3 525.656 1664.84 521.02C1672.39 516.384 1680.89 512.884 1690.34 510.52C1699.89 508.065 1709.75 506.293 1719.94 505.202C1732.21 503.929 1742.16 502.793 1749.8 501.793C1757.44 500.702 1762.98 499.065 1766.44 496.884C1769.98 494.611 1771.75 491.111 1771.75 486.384V485.565C1771.75 475.293 1768.71 467.338 1762.62 461.702C1756.53 456.065 1747.75 453.247 1736.3 453.247C1724.21 453.247 1714.62 455.884 1707.53 461.156C1700.53 466.429 1695.8 472.656 1693.34 479.838L1647.25 473.293C1650.89 460.565 1656.89 449.929 1665.25 441.384C1673.62 432.747 1683.84 426.293 1695.94 422.02C1708.03 417.656 1721.39 415.474 1736.03 415.474C1746.12 415.474 1756.16 416.656 1766.16 419.02C1776.16 421.384 1785.3 425.293 1793.57 430.747C1801.84 436.111 1808.48 443.429 1813.48 452.702C1818.57 461.974 1821.12 473.565 1821.12 487.474V627.656H1773.66V598.884H1772.03C1769.03 604.702 1764.8 610.156 1759.34 615.247C1753.98 620.247 1747.21 624.293 1739.03 627.384C1730.94 630.384 1721.44 631.884 1710.53 631.884ZM1723.34 595.611C1733.25 595.611 1741.84 593.656 1749.12 589.747C1756.39 585.747 1761.98 580.474 1765.89 573.929C1769.89 567.384 1771.89 560.247 1771.89 552.52V527.838C1770.34 529.111 1767.71 530.293 1763.98 531.384C1760.34 532.474 1756.25 533.429 1751.71 534.247C1747.16 535.065 1742.66 535.793 1738.21 536.429C1733.75 537.065 1729.89 537.611 1726.62 538.065C1719.25 539.065 1712.66 540.702 1706.84 542.974C1701.03 545.247 1696.44 548.429 1693.07 552.52C1689.71 556.52 1688.03 561.702 1688.03 568.065C1688.03 577.156 1691.34 584.02 1697.98 588.656C1704.62 593.293 1713.07 595.611 1723.34 595.611ZM1868.14 627.656V348.384H1917.5V452.838H1919.54C1922.09 447.747 1925.68 442.338 1930.32 436.611C1934.95 430.793 1941.23 425.838 1949.14 421.747C1957.04 417.565 1967.14 415.474 1979.41 415.474C1995.59 415.474 2010.18 419.611 2023.18 427.884C2036.27 436.065 2046.64 448.202 2054.27 464.293C2062 480.293 2065.86 499.929 2065.86 523.202C2065.86 546.202 2062.09 565.747 2054.54 581.838C2047 597.929 2036.73 610.202 2023.73 618.656C2010.73 627.111 1996 631.338 1979.54 631.338C1967.54 631.338 1957.59 629.338 1949.68 625.338C1941.77 621.338 1935.41 616.52 1930.59 610.884C1925.86 605.156 1922.18 599.747 1919.54 594.656H1916.68V627.656H1868.14ZM1916.54 522.929C1916.54 536.474 1918.45 548.338 1922.27 558.52C1926.18 568.702 1931.77 576.656 1939.04 582.384C1946.41 588.02 1955.32 590.838 1965.77 590.838C1976.68 590.838 1985.82 587.929 1993.18 582.111C2000.54 576.202 2006.09 568.156 2009.82 557.974C2013.64 547.702 2015.54 536.02 2015.54 522.929C2015.54 509.929 2013.68 498.384 2009.95 488.293C2006.23 478.202 2000.68 470.293 1993.32 464.565C1985.95 458.838 1976.77 455.974 1965.77 455.974C1955.23 455.974 1946.27 458.747 1938.91 464.293C1931.54 469.838 1925.95 477.611 1922.14 487.611C1918.41 497.611 1916.54 509.384 1916.54 522.929ZM2268.57 473.565L2223.57 478.474C2222.3 473.929 2220.07 469.656 2216.89 465.656C2213.8 461.656 2209.62 458.429 2204.35 455.974C2199.07 453.52 2192.62 452.293 2184.98 452.293C2174.71 452.293 2166.07 454.52 2159.07 458.974C2152.16 463.429 2148.76 469.202 2148.85 476.293C2148.76 482.384 2150.98 487.338 2155.53 491.156C2160.16 494.974 2167.8 498.111 2178.44 500.565L2214.16 508.202C2233.98 512.474 2248.71 519.247 2258.35 528.52C2268.07 537.793 2272.98 549.929 2273.07 564.929C2272.98 578.111 2269.12 589.747 2261.48 599.838C2253.94 609.838 2243.44 617.656 2229.98 623.293C2216.53 628.929 2201.07 631.747 2183.62 631.747C2157.98 631.747 2137.35 626.384 2121.71 615.656C2106.07 604.838 2096.76 589.793 2093.76 570.52L2141.89 565.884C2144.07 575.338 2148.71 582.474 2155.8 587.293C2162.89 592.111 2172.12 594.52 2183.48 594.52C2195.21 594.52 2204.62 592.111 2211.71 587.293C2218.89 582.474 2222.48 576.52 2222.48 569.429C2222.48 563.429 2220.16 558.474 2215.53 554.565C2210.98 550.656 2203.89 547.656 2194.26 545.565L2158.53 538.065C2138.44 533.884 2123.57 526.838 2113.94 516.929C2104.3 506.929 2099.53 494.293 2099.62 479.02C2099.53 466.111 2103.03 454.929 2110.12 445.474C2117.3 435.929 2127.26 428.565 2139.98 423.384C2152.8 418.111 2167.57 415.474 2184.3 415.474C2208.85 415.474 2228.16 420.702 2242.26 431.156C2256.44 441.611 2265.21 455.747 2268.57 473.565Z" fill="#0F172A"/>
</svg>
